PathFileType	4	(X/Y/Z)	markers
DataRate	CameraRate	NumFrames	NumMarkers	Units	OrigDataRate	OrigDataStartFrame	OrigNumFrames
200	200	8	39	mm	200	225	257
Frame#	Time	RASI			LASI			RPSI			LPSI			RTH1			RTH2			RTH3			RTH4			RLFC			RTB1			RTB2			RTB3			RTB4			RLMAL			RCAL			RTOE			RMT5			LTH1			LTH2			LTH3			LTH4			LLFC			LTB1			LTB2			LTB3			LTB4			LLMAL			LCAL			LTOE			LMT5			C7			T10			CLAV			RACR			LACR			RLEL			RFAradius			LLEL			LFAradius		
		X1	Y1	Z1	X2	Y2	Z2	X3	Y3	Z3	X4	Y4	Z4	X5	Y5	Z5	X6	Y6	Z6	X7	Y7	Z7	X8	Y8	Z8	X9	Y9	Z9	X10	Y10	Z10	X11	Y11	Z11	X12	Y12	Z12	X13	Y13	Z13	X14	Y14	Z14	X15	Y15	Z15	X16	Y16	Z16	X17	Y17	Z17	X18	Y18	Z18	X19	Y19	Z19	X20	Y20	Z20	X21	Y21	Z21	X22	Y22	Z22	X23	Y23	Z23	X24	Y24	Z24	X25	Y25	Z25	X26	Y26	Z26	X27	Y27	Z27	X28	Y28	Z28	X29	Y29	Z29	X30	Y30	Z30	X31	Y31	Z31	X32	Y32	Z32	X33	Y33	Z33	X34	Y34	Z34	X35	Y35	Z35	X36	Y36	Z36	X37	Y37	Z37	X38	Y38	Z38	X39	Y39	Z39
225	1.120000	3169.507626	1040.253034	783.526526	3175.419800	1023.589687	548.876003	3007.685206	1061.965938	716.801179	3008.173894	1061.103754	619.816259	3228.431664	803.549074	823.647655	3277.613580	827.759341	789.930843	3318.758451	734.905153	777.467036	3282.820811	712.888425	803.957838	3325.366209	591.812531	789.018515	3284.127930	466.149805	809.268928	3330.845285	462.709313	789.953738	3323.488635	357.928316	768.160715	3265.717894	366.457452	795.061983	3246.022463	159.524433	754.706962	3193.345446	121.835450	691.797009	3420.630602	125.449445	694.606346	3371.821528	111.017635	787.365011	3103.722355	751.199906	495.891936	3144.963596	749.720005	521.645563	3131.545515	650.101690	548.166482	3077.068278	647.229404	512.956799	3010.205753	532.573419	523.848185	2939.412823	458.114133	502.215954	2972.514672	427.335557	524.519620	2903.592211	353.507292	542.360635	2855.461664	391.618490	511.059494	2714.116940	227.258011	553.404185	2635.207340	256.153398	618.229374	2779.633501	85.406197	627.539016	2734.522582	102.692004	534.585977	3028.203189	1559.139839	653.702374	2964.423571	1358.208757	634.951493	3130.026127	1483.551690	699.987181	3030.499033	1530.843421	822.488472	3112.032051	1535.745358	499.752642	2814.485200	1288.737122	886.770451	2992.010245	1100.752670	889.216288	3117.511462	1198.575304	404.073222	3293.096549	1304.121803	545.418758
226	1.125000	3185.599261	1042.190511	784.228598	3191.510410	1025.656062	549.734861	3024.216789	1063.983066	717.482907	3024.337234	1063.996734	620.558090	3240.547414	802.975763	825.198932	3291.209670	826.559693	792.847857	3330.668673	733.558269	781.938742	3293.933934	710.835368	806.110751	3336.383706	590.561467	791.582509	3300.345142	463.568080	811.713756	3347.162904	462.516701	791.387856	3344.615689	357.409602	769.523552	3285.758913	362.914356	796.298670	3276.315837	155.658317	754.688661	3225.586851	115.831004	691.909186	3451.879489	130.542140	693.699365	3404.877326	112.052898	786.048988	3118.332775	753.432139	497.309295	3158.639885	751.103920	524.746024	3144.669244	652.374565	548.611664	3090.249486	650.341045	513.082195	3022.234371	536.590956	524.232021	2950.771400	462.920107	502.419896	2983.540928	431.451347	524.507907	2913.779334	357.639078	541.917467	2866.650083	396.290681	511.172096	2723.171742	233.365479	552.568817	2645.387138	264.605616	618.048645	2785.181224	87.964111	626.943884	2740.029227	107.493159	534.407604	3042.521486	1561.252074	654.575884	2979.698130	1359.422903	635.215232	3144.302423	1485.821028	701.338673	3044.244199	1532.928223	822.886080	3126.185656	1538.264562	501.474145	2826.701408	1292.039431	885.853176	3004.151017	1103.576987	890.607548	3134.148151	1202.508678	404.721547	3307.415453	1307.664730	548.600859
227	1.130000	3201.592965	1043.561734	784.846239	3207.285471	1027.243996	550.459674	3040.485578	1065.957969	718.422597	3040.696723	1064.877818	621.576083	3253.481825	801.208605	826.236970	3304.813891	825.001963	795.531469	3342.976835	731.059258	785.200822	3304.707466	709.981163	809.374447	3347.552573	588.569444	793.249514	3315.699470	461.455459	813.236362	3362.800866	461.489218	794.149781	3364.726467	356.595531	770.889513	3305.826792	359.742161	797.408470	3306.236446	152.619184	755.862684	3257.417621	110.798600	692.435852	3482.892091	135.609951	692.787520	3436.988563	114.094467	784.445426	3132.501778	755.924452	497.636893	3173.178189	753.455439	525.215844	3158.028059	654.079323	549.619650	3104.050743	651.851604	514.566349	3034.510591	539.166090	525.759523	2962.896659	466.402632	503.076883	2995.356639	434.735203	524.701008	2924.820309	361.920649	541.784033	2878.075080	401.063298	511.504119	2732.083171	239.152639	552.123510	2655.988973	272.839734	617.630133	2790.545932	90.204266	625.958801	2745.150649	112.326996	533.676990	3056.532421	1562.600843	656.559406	2996.599564	1358.780798	637.074530	3158.212045	1487.425165	702.653987	3057.842112	1534.148007	823.256952	3141.308452	1540.619272	503.268819	2839.020105	1294.869531	885.435223	3017.041820	1106.474239	892.019976	3150.251882	1205.062934	405.709592	3322.096796	1311.359066	551.012047
228	1.135000	3217.661340	1044.461751	785.451439	3223.214188	1028.592521	551.109276	3057.892232	1068.101122	719.605793	3056.832348	1067.573522	622.170080	3265.600979	801.501297	829.534006	3318.664475	822.369972	798.089096	3355.553267	727.705075	787.793416	3316.215465	707.494441	812.337837	3358.745040	586.405257	794.747015	3331.695418	458.451721	814.030921	3378.521256	461.067596	795.502009	3384.863978	356.251743	772.220818	3326.014350	356.948433	798.575861	3335.773263	150.208699	756.906608	3288.508783	105.352972	692.870622	3513.376708	142.228794	692.892591	3468.512240	116.521870	784.843873	3147.847896	757.330099	498.445085	3187.875032	754.444037	526.553385	3172.317760	655.968556	551.086289	3118.271170	654.616046	514.479394	3047.750437	542.777438	525.935943	2975.599418	469.285243	504.000720	3007.585368	437.529359	525.550809	2936.216565	365.611639	541.513376	2890.293401	404.783437	511.335452	2741.563370	244.639370	551.437200	2666.870877	280.820743	617.066494	2795.659515	93.965844	624.784710	2750.895516	118.479424	532.774840	3070.126236	1563.546000	657.149256	3012.236838	1360.436743	637.694078	3172.342120	1488.949989	704.370185	3071.336446	1534.843808	823.931985	3156.757969	1542.894072	504.893993	2851.807675	1297.063659	884.518601	3029.818701	1108.936924	893.421040	3167.239921	1207.584582	405.727089	3337.582460	1314.152979	553.719624
229	1.140000	3233.691672	1045.025287	786.196904	3238.616855	1029.800664	551.925006	3073.603062	1069.784015	720.500495	3072.732901	1068.609942	622.614584	3278.337432	800.767286	831.993693	3332.520521	820.182438	800.917164	3367.396630	724.984237	790.862980	3327.822948	705.397149	815.283691	3370.110417	583.790134	796.161511	3346.738102	456.410560	816.096077	3393.784596	460.498934	796.605399	3404.166940	356.036391	774.001250	3345.094354	354.237718	800.002333	3364.126043	147.517007	758.487305	3319.824675	101.025634	693.530390	3541.220835	148.751336	692.530019	3499.186979	120.282202	784.475586	3163.175052	758.349703	500.474669	3202.904118	755.236664	529.144543	3186.362627	657.186389	552.301963	3132.983141	655.489858	516.637924	3061.666847	544.032571	527.132193	2989.026784	471.772008	504.637852	3020.366928	439.777054	526.266939	2947.953518	368.849833	541.164406	2903.052023	408.035103	510.982224	2750.585121	250.343220	551.089259	2677.890879	288.513636	616.450380	2800.955877	98.681037	624.040673	2757.563077	124.452375	532.055911	3085.175880	1564.957367	657.683747	3027.440807	1361.114004	638.155071	3186.498820	1490.193789	705.598954	3085.072321	1535.959747	824.936044	3170.941816	1544.208864	506.384696	2864.074680	1298.838020	884.231003	3042.562830	1110.859564	895.006059	3183.376704	1210.070139	406.118289	3351.678376	1316.818462	556.738222
230	1.145000	3249.728518	1045.197664	786.924604	3254.026396	1030.692825	552.788179	3089.122196	1069.965163	720.831253	3090.716083	1070.390372	624.136015	3292.561412	798.048108	833.073002	3346.034550	818.154495	803.454981	3379.236731	721.773375	793.167013	3340.027058	702.657690	818.180166	3381.345980	581.059450	797.466064	3361.883378	453.739013	816.873431	3408.418823	459.984549	798.984704	3422.855427	355.683067	775.840587	3363.648973	352.060825	801.103313	3392.328760	146.011617	760.080637	3349.476113	97.932618	694.893834	3568.592627	154.367142	692.557155	3528.609139	124.137760	784.566480	3178.728211	759.012200	501.631424	3218.291084	755.847671	530.413136	3201.322332	658.500760	554.015637	3148.162928	657.189725	517.002663	3076.335097	546.323346	527.894916	3003.087916	473.890076	505.063506	3033.786755	441.358738	526.439772	2960.016583	371.773019	540.796033	2916.090668	411.756301	510.901694	2760.837679	256.636378	550.290847	2688.907011	295.883404	615.874448	2806.381680	103.598069	623.680610	2764.195123	130.232648	531.374536	3098.375861	1565.557506	658.074651	3042.384302	1360.534242	638.791798	3200.894932	1491.364688	706.954685	3099.058956	1536.649714	825.861534	3185.902327	1545.873250	507.789086	2877.171567	1300.162018	883.812989	3056.036587	1112.330667	896.322233	3199.551833	1211.899839	406.513624	3365.610623	1319.014040	558.964650
231	1.150000	3265.624171	1044.975792	787.531664	3269.327560	1031.260049	553.507453	3104.695726	1070.727571	721.944851	3106.478655	1071.647783	625.372665	3306.305227	796.329009	835.050842	3359.536744	815.346470	805.271306	3391.258673	717.660538	795.060802	3352.303479	700.099240	820.843311	3392.815798	578.105720	798.605758	3376.145209	451.880559	818.309981	3423.224585	459.367023	800.564904	3441.025711	355.305959	778.327765	3381.749945	349.238456	802.052612	3418.679306	145.324875	762.428915	3378.116119	94.751707	696.604511	3594.751338	161.394786	692.176030	3557.204432	127.047718	783.518364	3194.618494	759.830475	502.376199	3234.121211	757.422294	531.357469	3216.454894	658.611006	556.682842	3163.993917	657.613710	518.082865	3091.422505	546.523322	529.137271	3017.691973	475.666597	505.352911	3047.434841	442.844795	527.169900	2972.391177	374.518982	540.467166	2929.623453	414.647586	509.989523	2770.647205	263.503425	549.323245	2699.777302	302.895040	615.431352	2814.658519	109.193800	622.407284	2771.390960	136.575647	530.433922	3112.526839	1565.612500	660.042159	3056.692633	1361.892649	638.766428	3215.066176	1491.882447	708.275411	3112.684404	1536.735837	826.865691	3200.123757	1546.489564	509.292540	2889.963575	1301.121684	883.760431	3069.512829	1113.527466	897.943602	3215.851038	1213.486760	407.095696	3379.582072	1320.695625	561.132724
232	1.155000	3281.606936	1044.487273	788.539357	3284.812341	1031.838983	554.268276	3120.593903	1070.861677	723.444853	3122.193264	1072.049760	626.259562	3320.482751	793.690096	836.977750	3373.226768	811.875384	806.655986	3403.732324	713.828834	797.076141	3364.947577	696.786380	823.086125	3403.982182	575.481728	799.395464	3390.463304	449.267976	818.948973	3437.301409	458.507107	802.097612	3458.736250	355.218142	780.841974	3399.696916	348.011318	804.234913	3445.584746	143.835647	763.589631	3405.456754	92.390266	698.895940	3619.528952	166.521593	692.379753	3584.462902	131.333617	784.737343	3211.069638	759.832308	503.852591	3250.188008	757.737023	532.583819	3231.963091	658.693956	559.057053	3180.387821	656.935793	520.191984	3107.226876	547.188611	529.248208	3032.748114	477.128722	505.581296	3061.567685	443.653520	527.001589	2985.062715	377.225510	540.236715	2942.981349	417.633700	510.417474	2781.484470	270.207802	548.667350	2710.776081	310.479826	614.658557	2821.662289	114.625665	620.778178	2780.185489	143.420764	528.701961	3127.312007	1566.041146	661.449583	3071.936198	1361.338226	639.372259	3229.037115	1492.396526	709.729388	3126.615880	1536.586845	827.842555	3215.109490	1547.349136	510.774887	2903.524776	1301.658603	883.701634	3083.089745	1114.324796	899.418049	3231.266131	1214.162317	407.341758	3393.148845	1322.255293	563.767132
